PathFileType	4	(X/Y/Z)	c:/Users/goper/Files/vsCode/490R/osim_files/A06/A06_Fast_02.trc
DataRate	CameraRate	NumFrames	NumMarkers	Units                	OrigDataRate	OrigDataStartFrame	OrigNumFrames
120.00	120.00	4	36	mm	120.0	431	1149
                Frame#	Time	LPSIS			LASIS			LTH1			LTH2			LTH3			LTH4			LLFE			LMFE			LSH1			LSH2			LSH3			LSH4			LLMAL			LMMAL			LCAL			LMTP5			LTOE			LMTP1			RPSIS			RASIS			RTH1			RTH2			RTH3			RTH4			RLFE			RMFE			RSH1			RSH2			RSH3			RSH4			RLMAL			RMMAL			RCAL			RMTP1			RTOE			RMTP5		
		X1	Y1	Z1	X2	Y2	Z2	X3	Y3	Z3	X4	Y4	Z4	X5	Y5	Z5	X6	Y6	Z6	X7	Y7	Z7	X8	Y8	Z8	X9	Y9	Z9	X10	Y10	Z10	X11	Y11	Z11	X12	Y12	Z12	X13	Y13	Z13	X14	Y14	Z14	X15	Y15	Z15	X16	Y16	Z16	X17	Y17	Z17	X18	Y18	Z18	X19	Y19	Z19	X20	Y20	Z20	X21	Y21	Z21	X22	Y22	Z22	X23	Y23	Z23	X24	Y24	Z24	X25	Y25	Z25	X26	Y26	Z26	X27	Y27	Z27	X28	Y28	Z28	X29	Y29	Z29	X30	Y30	Z30	X31	Y31	Z31	X32	Y32	Z32	X33	Y33	Z33	X34	Y34	Z34	X35	Y35	Z35	X36	Y36	Z36

431	3.58333	442.56616	1000.32898	321.23141	255.03651	937.67151	382.65134	274.04147	584.19305	418.12869	257.16119	546.53357	411.66666	212.51598	601.06897	406.27164	206.76073	559.41687	402.79263	217.08788	480.08151	397.38666	219.86763	476.56113	290.17261	271.36371	384.84146	413.97562	263.21490	338.55789	418.45804	209.94327	387.45380	403.57956	210.64752	345.67871	406.06284	261.35257	91.51808	373.51233	242.60652	102.37554	289.61758	325.53516	82.32419	321.72690	146.62016	44.83994	395.46930	105.98473	66.92440	340.11203	128.20953	56.91566	302.41302	444.68961	1016.99005	190.87236	270.95975	985.89838	129.20003	355.05020	587.91455	87.02331	346.34622	545.54523	87.89518	293.11557	592.91840	97.88536	292.85065	547.97314	95.76532	317.15820	434.84052	115.86261	320.96234	434.56772	204.94334	460.92139	369.59079	120.25258	500.44772	343.06726	119.97272	431.45511	317.43338	133.85616	475.08417	297.83936	127.80304	617.43939	270.29993	102.92310	610.03204	260.56351	187.29930	668.70905	305.77042	148.26007	575.43311	125.60313	183.19479	555.35565	119.52795	143.81055	580.11261	133.52977	94.59998
432	3.59167	432.83618	1002.62689	322.70969	245.44046	940.07501	383.69861	270.45505	584.86096	418.73218	254.25671	546.91425	412.34906	208.41965	600.86096	407.56622	203.94066	559.07770	405.17950	215.00540	480.04041	398.15421	215.99759	476.60196	291.19666	269.58035	385.23715	414.34387	262.03159	339.41046	419.27780	208.11874	387.45059	404.30075	209.07008	345.68921	406.72882	261.13345	91.67702	373.55475	242.36021	102.71882	289.71185	325.43100	82.63696	321.77261	146.55148	44.80082	395.53540	105.89946	66.74799	340.15131	128.10393	56.95329	302.35696	435.08932	1020.01471	192.49640	261.50607	989.06604	130.46761	337.66895	591.08081	88.06981	327.73532	549.02283	89.19582	273.01929	596.43213	101.06847	274.84250	553.87286	96.45567	295.32211	439.27536	117.63567	299.36362	439.18173	206.66670	438.18439	372.05676	121.86779	477.12115	344.76587	121.57600	408.06476	320.28198	135.74841	451.38257	300.17496	129.56628	593.20441	270.59888	103.97523	585.93604	260.99460	188.87843	645.06372	305.40396	149.55130	549.53564	126.82844	185.33545	529.17108	120.66922	145.95154	553.94873	134.42561	96.45033
433	3.60000	423.07178	1004.64783	324.04584	235.64099	942.45459	384.72812	266.98166	584.94659	417.67725	251.40224	547.37390	412.85602	204.60184	601.13464	408.38251	200.69861	558.76654	406.22986	212.92004	480.07086	398.80661	212.37607	476.61624	291.86371	267.81494	385.64874	414.63474	260.58722	339.74951	419.59064	206.33253	387.53311	404.73495	207.45985	345.75421	407.22296	260.93457	91.90668	373.61496	242.20152	103.03970	289.81531	325.29358	82.96129	321.78915	146.50671	44.76054	395.56693	105.79628	66.61146	340.16644	128.00577	56.91700	302.35669	425.55414	1022.76672	193.91440	250.95760	992.05798	132.32083	320.02475	594.07220	89.13797	309.36584	552.48138	90.44444	256.00958	601.32684	102.26010	256.56754	558.66724	97.80080	273.98608	443.75473	119.27653	277.89755	443.64346	208.29025	415.76385	374.10428	123.54822	454.31793	346.21307	123.18691	384.51373	322.45480	137.45728	427.84882	301.82526	131.00687	568.85388	269.71155	105.53764	561.54095	260.52182	190.48419	621.31848	303.71600	150.95206	522.73254	127.00352	187.43973	502.22324	121.49351	148.26349	527.04022	134.01056	98.54694
434	3.60833	413.31876	1006.52277	325.18698	225.97821	944.68970	385.99808	263.56000	587.32550	418.62427	248.18205	547.69891	413.39023	200.47168	600.72614	409.27036	197.41899	558.34705	407.01926	210.48352	480.03772	399.25064	209.45694	476.52182	292.16672	266.11548	386.08359	414.86545	259.12610	340.12036	419.77945	204.54776	387.58844	405.15155	206.03238	345.75662	407.59833	260.74295	92.10629	373.62698	242.01854	103.29218	289.85797	325.15628	83.24888	321.78226	146.42348	44.73558	395.59399	105.68675	66.45302	340.16370	127.95800	56.84240	302.40726	416.07050	1025.29456	195.24319	242.43445	994.79620	133.18579	303.31165	597.34369	90.21245	291.45663	556.02997	91.52846	242.08418	607.54242	101.45882	238.87820	563.31696	98.80720	253.24101	448.28214	120.74035	257.59418	448.38177	209.73788	393.46552	375.54276	125.01855	431.25177	346.86630	124.72441	361.20996	324.53995	139.13867	404.03290	303.12823	132.61061	544.83838	268.02673	107.35226	536.83362	258.97760	192.02538	597.39917	300.85385	152.33391	495.22284	126.31783	189.43633	474.36032	121.20499	150.26729	499.56927	133.26743	100.42587
